<svg width="172" height="162" viewBox="0 0 172 162" fill="none" xmlns="http://www.w3.org/2000/svg">
<path d="M79.2095 1.87182C79.428 5.19923 79.3794 8.55093 79.0637 11.8541C79.0151 12.2669 78.9908 12.6798 78.918 13.0684C78.8937 13.2627 78.8694 13.457 78.8451 13.6513C78.8208 13.9428 78.918 13.1899 78.8451 13.6271C78.8208 13.7485 78.8208 13.8942 78.7965 14.0157C78.6751 14.8414 78.5294 15.6672 78.3837 16.493C78.068 18.1446 77.6551 19.7961 77.1693 21.3991C76.9264 22.152 76.6835 22.9049 76.4164 23.6579C76.2706 24.0222 76.1491 24.3865 75.9791 24.7508C75.9548 24.8237 75.8577 24.9451 75.8577 25.0423C75.8577 24.7994 76.0035 24.7265 75.9063 24.8966C75.8092 25.0909 75.7363 25.2851 75.6391 25.4794C75.0562 26.7667 74.3519 28.0054 73.5747 29.1712C73.4046 29.4384 73.2104 29.7055 73.0161 29.9727C72.9189 30.1184 72.7974 30.2641 72.7003 30.4099C72.6517 30.4584 72.6031 30.5313 72.5788 30.5799C72.8217 30.1427 72.676 30.4584 72.6032 30.5556C72.166 31.1142 71.6803 31.6728 71.1945 32.2072C70.7088 32.7172 70.223 33.2029 69.6886 33.6887C69.4458 33.9073 69.1787 34.1259 68.9115 34.3445C68.7901 34.4416 68.6686 34.5388 68.5472 34.6359C68.3529 34.7817 68.9114 34.3445 68.62 34.5873C68.5228 34.6602 68.45 34.7088 68.3528 34.7816C67.7213 35.2431 67.0655 35.6803 66.3855 36.0689C65.7054 36.4575 65.0012 36.7489 64.2968 37.1133C64.3211 37.089 64.7096 36.9433 64.4425 37.0404C64.3453 37.089 64.2482 37.1133 64.1511 37.1618C63.9568 37.2347 63.7625 37.3076 63.5439 37.3804C63.1796 37.5019 62.8152 37.6233 62.4266 37.7205C61.6737 37.939 60.8965 38.0848 60.1193 38.1819C59.7064 38.2305 59.2207 38.6677 59.0264 39.0077C58.8321 39.372 58.7592 39.7606 58.8078 40.1735C58.9292 41.0479 59.6821 41.7522 60.6051 41.7522C62.3781 41.7279 64.151 41.7279 65.924 41.8494C66.3369 41.8736 66.7255 41.9222 67.1384 41.9708C67.1627 41.9708 67.5999 42.0437 67.3085 41.9951C66.9927 41.9465 67.4298 42.0194 67.4784 42.0194C67.697 42.0437 67.9156 42.0923 68.1342 42.1408C69.0086 42.3108 69.8587 42.5294 70.6844 42.7966C70.8302 42.8452 71.0002 42.918 71.1459 42.9666C71.2188 42.9909 71.3159 43.0395 71.3888 43.0637C71.5345 43.1123 71.6802 43.2581 71.2916 43.0152C71.5831 43.2095 71.9474 43.3066 72.2631 43.4767C72.8703 43.7924 73.4533 44.1324 73.9876 44.521C74.1333 44.6182 74.279 44.7153 74.4247 44.8368C74.4733 44.8853 74.5462 44.9339 74.5948 44.9582C74.8377 45.1282 74.4976 44.8853 74.4734 44.861C74.7162 45.1039 75.0319 45.3225 75.2991 45.5411C75.8334 46.0269 76.3434 46.5126 76.8292 47.0469C77.0478 47.2898 77.2664 47.5327 77.4607 47.7756C77.5578 47.897 77.6551 48.0184 77.7765 48.1642C77.9222 48.3585 77.5093 47.7999 77.7279 48.0913C77.8007 48.1885 77.8493 48.2613 77.9221 48.3585C78.335 48.9171 78.6994 49.5 79.0637 50.0829C79.428 50.6901 79.7681 51.3216 80.0838 51.953C80.2296 52.2688 80.3752 52.5845 80.521 52.9003C80.5452 52.9731 80.5695 53.046 80.6181 53.0946C80.4238 52.6331 80.5452 52.9003 80.5938 53.0217C80.6666 53.216 80.7396 53.386 80.8125 53.5803C81.3711 55.0376 81.7839 56.5191 82.0997 58.025C82.1968 58.4621 82.2697 58.875 82.3425 59.3122C82.3668 59.4822 82.3911 59.6765 82.4397 59.8465C82.464 59.9923 82.4883 60.1137 82.4883 60.2594C82.4883 60.1866 82.464 60.1137 82.464 60.0408C82.464 60.138 82.4883 60.2109 82.4883 60.308C82.5854 61.1824 82.6826 62.0325 82.7312 62.9068C82.9983 66.9143 82.7555 70.946 82.4883 74.9292C82.4397 75.8279 83.2169 76.605 84.067 76.7265C84.9656 76.8479 85.7913 76.2893 86.0585 75.415C87.9772 69.3188 88.2202 62.8825 89.6532 56.6891C89.9689 55.3047 90.3332 53.9203 90.8189 52.5602C90.9161 52.2688 91.0376 51.9773 91.1347 51.7102C91.1833 51.5644 91.2804 51.4187 91.329 51.2487C91.329 51.273 91.1589 51.6616 91.2804 51.3944C91.3046 51.3216 91.3533 51.2244 91.3776 51.1516C91.6448 50.5687 91.9119 50.01 92.2034 49.4514C92.7863 48.3342 93.4663 47.2655 94.2192 46.2697C94.2678 46.2212 94.3163 46.1483 94.3406 46.0997C94.0978 46.464 94.1706 46.3183 94.2435 46.2211C94.3407 46.0997 94.4379 45.9783 94.535 45.8568C94.7293 45.614 94.9478 45.3711 95.1664 45.1282C95.5793 44.6667 96.0165 44.2296 96.4537 43.841C96.7209 43.5981 96.9637 43.3795 97.2552 43.1609C97.3037 43.1123 97.3524 43.088 97.4252 43.0395C96.988 43.3795 97.3037 43.1366 97.3766 43.0637C97.5223 42.9666 97.6438 42.8695 97.7895 42.7723C98.3239 42.408 98.8825 42.068 99.4654 41.7765C99.6111 41.7036 99.7811 41.6308 99.9268 41.5579C99.9997 41.5336 100.048 41.5093 100.121 41.485C100.461 41.3393 99.7568 41.6308 100.073 41.5093C100.388 41.3879 100.704 41.2665 101.044 41.1693C101.384 41.0722 101.7 40.975 102.04 40.9021C102.186 40.8778 102.356 40.8293 102.501 40.805C102.647 40.7807 103.327 40.6835 102.696 40.7564C103.181 40.6835 103.643 40.6107 103.983 40.2221C104.25 39.9306 104.42 39.5906 104.493 39.1777C104.614 38.3519 104.08 37.3561 103.181 37.1861C102.477 37.0404 101.773 36.8704 101.068 36.6518C100.753 36.5546 100.461 36.4332 100.145 36.3361C99.9754 36.2632 99.8054 36.1903 99.6354 36.1418C100.194 36.3603 99.5625 36.0932 99.4167 36.0446C98.1295 35.4374 96.8909 34.7088 95.7494 33.8587C95.7008 33.8101 95.6279 33.7616 95.5793 33.7373C95.3365 33.543 95.6765 33.8101 95.7008 33.8344C95.5793 33.713 95.4094 33.6158 95.2636 33.4944C94.9722 33.2515 94.7049 33.0329 94.4378 32.7901C93.9034 32.3043 93.3691 31.7943 92.8834 31.2356C92.3976 30.7013 91.9362 30.167 91.4747 29.6084C91.4262 29.5355 91.3775 29.4627 91.3047 29.3898C91.329 29.4141 91.5719 29.7298 91.3776 29.4869C91.2562 29.3412 91.1589 29.1955 91.0375 29.0498C90.8189 28.7583 90.6004 28.4425 90.4061 28.1511C89.6046 26.961 88.9002 25.6981 88.2687 24.4108C88.123 24.0951 87.9773 23.8036 87.8316 23.4879C87.783 23.415 87.7587 23.3179 87.7345 23.245C87.613 22.9778 87.783 23.3421 87.783 23.3664C87.7101 23.1478 87.6129 22.9535 87.5401 22.7592C87.2729 22.1035 87.03 21.4234 86.7871 20.7433C85.7671 17.756 85.0142 14.6714 84.407 11.5626C84.067 9.83819 83.7513 8.08947 83.4841 6.34076C83.3627 5.51498 83.2412 4.71349 83.1198 3.88771C83.0712 3.47482 82.9983 3.08621 82.9497 2.67332C82.9254 2.5276 82.8283 1.84753 82.9254 2.45473C82.9011 2.23614 82.8769 2.04184 82.8526 1.82325C82.7797 1.31321 82.6825 0.900308 82.3182 0.535992C82.0025 0.220252 81.4925 -0.0226129 81.031 0.00167477C80.5696 0.0259625 80.0594 0.171677 79.7437 0.535992C79.428 0.924595 79.1366 1.41035 79.2095 1.87182C80.0595 8.25948 81.0311 14.72 82.9984 20.8648C84.8928 26.7181 87.9773 32.3043 92.8106 36.2146C95.5551 38.4248 98.7125 40.1249 102.186 40.7807C102.356 39.5906 102.501 38.4005 102.671 37.2104C101.166 37.4047 99.7811 37.7933 98.3724 38.4005C97.1337 38.9348 95.9922 39.6635 94.9235 40.5135C92.8348 42.1408 91.1104 44.2539 89.7503 46.5126C88.3173 48.8685 87.2729 51.4673 86.5686 54.1389C85.7185 57.2963 85.2328 60.5509 84.747 63.7812C84.2127 67.4243 83.654 71.0675 82.5368 74.5892C83.7269 74.7592 84.917 74.9049 86.1071 75.0749C86.5686 67.8858 86.9815 60.3566 84.5527 53.4346C82.5369 47.6541 78.5779 42.238 72.8217 39.8092C68.96 38.1819 64.734 38.1333 60.6051 38.1819C60.7751 39.372 60.9208 40.5621 61.0908 41.7522C67.2113 40.9021 72.4331 36.9433 76.0034 32.0857C79.9623 26.6938 81.6868 19.9176 82.5126 13.3599C82.9984 9.54674 83.0955 5.70927 82.8283 1.8961C82.7554 0.948877 82.0268 0.0259447 81.0067 0.0745201C80.0838 0.0988078 79.1366 0.851732 79.2095 1.87182Z" fill="#FEC031"/>
<path d="M11.7621 51.2487C12.175 53.0703 12.5393 54.9161 12.855 56.762C13.025 57.6607 13.1708 58.5593 13.2923 59.4579C13.3651 59.9194 13.438 60.3566 13.4865 60.818C13.5108 61.0123 13.5351 61.2309 13.5594 61.4252C13.6079 61.7653 13.5594 61.4495 13.5594 61.401C13.5836 61.5467 13.608 61.6924 13.608 61.8624C14.0937 65.5299 14.3851 69.1973 14.5309 72.889C14.6037 74.4678 14.6038 76.0222 14.5067 77.6009C14.4824 77.9652 14.458 78.3295 14.4094 78.6938C14.3851 78.8881 14.3609 79.0824 14.3366 79.2767C14.3123 79.471 14.3852 79.6167 14.3366 79.2281C14.3609 79.3496 14.288 79.4953 14.288 79.6167C14.1665 80.3696 14.0208 81.0983 13.8022 81.8269C13.7051 82.1912 13.5837 82.5312 13.4622 82.8956C13.4137 83.0413 13.3166 83.2113 13.2923 83.357C13.3894 82.9927 13.3894 83.1627 13.3408 83.2599C13.2922 83.3813 13.2436 83.4785 13.195 83.5999C12.855 84.3043 12.4664 84.96 12.005 85.5915C11.8835 85.7372 11.7864 85.9072 11.665 86.053C11.6892 86.0044 11.9079 85.7372 11.7136 85.9801C11.665 86.053 11.6164 86.1258 11.5435 86.1744C11.3006 86.4901 11.0334 86.8059 10.7663 87.1216C10.2562 87.7045 9.69768 88.2874 9.13906 88.8461C8.53187 89.4532 7.90032 90.0119 7.24455 90.5705C6.90452 90.8619 6.56454 91.1534 6.20023 91.4205C6.12737 91.4934 6.03021 91.5663 5.95735 91.6149C5.90878 91.6391 5.61732 91.882 5.83591 91.712C6.07879 91.542 5.73876 91.7849 5.71447 91.8092C5.61732 91.882 5.49593 91.9549 5.39878 92.052C3.94152 93.1207 2.43568 94.1165 0.905559 95.0637C0.249791 95.4766 -0.187482 96.3509 0.0796826 97.1282C0.32256 97.8568 1.02695 98.5126 1.82844 98.464C3.35857 98.3668 4.88869 98.294 6.44311 98.3668C7.46319 98.4154 8.48327 98.5126 9.47907 98.634C10.0377 98.6826 10.572 98.7312 11.1306 98.7797C11.3006 98.7797 11.4706 98.804 11.6406 98.8283C11.6892 98.8283 11.7135 98.8283 11.7621 98.8526C11.9564 98.8769 11.9078 98.8769 11.6163 98.8283C11.6649 98.8526 11.7864 98.8526 11.835 98.8526C12.2236 98.9255 12.6122 98.9983 13.0008 99.1198C13.3408 99.2169 13.6809 99.3384 13.9966 99.4598C14.0938 99.4841 14.1666 99.5326 14.2638 99.5569C14.5067 99.6541 13.8265 99.3626 14.1909 99.5326C14.3852 99.6298 14.5552 99.7026 14.7495 99.7998C15.4296 100.14 16.0611 100.528 16.6682 100.966C16.7411 101.014 16.814 101.087 16.8868 101.136C17.154 101.33 16.814 101.087 16.7897 101.063C16.8626 101.184 17.1297 101.33 17.2268 101.427C17.5426 101.694 17.8341 101.961 18.1255 102.229C18.6841 102.763 19.2428 103.346 19.7285 103.929C19.9714 104.22 20.2143 104.512 20.4328 104.803C20.7 105.143 20.19 104.463 20.4328 104.803C20.4814 104.876 20.53 104.925 20.5786 104.997C20.7243 105.192 20.87 105.386 20.9914 105.58C21.4529 106.236 21.89 106.892 22.3029 107.572C23.2016 109.053 24.0274 110.608 24.7803 112.162C25.1932 113.012 25.6061 113.887 25.9947 114.737C26.0919 114.931 26.1647 115.125 26.2619 115.32C26.3105 115.417 26.3591 115.538 26.4076 115.635C26.5291 115.951 26.4076 115.66 26.3833 115.587C26.6019 116.073 26.7719 116.558 26.9662 117.044C28.5449 121.027 29.7593 125.132 30.6094 129.334C30.7794 130.232 31.7752 130.742 32.601 130.645C33.5725 130.524 34.0826 129.771 34.1797 128.848C35.0298 121.537 33.1838 114.275 33.621 106.94C33.6453 106.357 33.7182 105.775 33.7668 105.216C33.791 105.07 33.8154 104.925 33.8154 104.779C33.8397 104.536 33.7425 105.289 33.7911 104.925C33.7911 104.852 33.8154 104.803 33.8154 104.73C33.864 104.414 33.9124 104.099 33.961 103.783C34.1796 102.544 34.4711 101.306 34.8111 100.116C35.0054 99.4841 35.1997 98.8526 35.4183 98.2211C35.5154 97.9296 35.6126 97.6625 35.7341 97.3953C35.7827 97.2496 35.8555 97.1039 35.904 96.9581C36.0255 96.691 35.8555 97.0796 35.8312 97.1039C35.8798 97.0067 35.9041 96.9096 35.9527 96.8124C36.4627 95.6709 37.0456 94.5537 37.7499 93.5093C37.9199 93.2421 38.1143 92.975 38.3086 92.7078C38.3329 92.6592 38.5514 92.3921 38.3328 92.6592C38.1385 92.9264 38.3572 92.6349 38.4057 92.5864C38.5029 92.4649 38.6 92.3435 38.7214 92.222C39.1343 91.7363 39.5958 91.2748 40.0816 90.8619C40.203 90.7405 40.3488 90.6433 40.4702 90.5462C40.6402 90.4005 40.1301 90.7891 40.3244 90.6676C40.3973 90.6191 40.4701 90.5705 40.543 90.4976C40.8102 90.3276 41.0531 90.1576 41.3446 89.9876C41.6117 89.8419 41.8788 89.6961 42.146 89.5747C42.1946 89.5504 42.4861 89.429 42.1703 89.5504C41.8789 89.6718 42.1218 89.5747 42.1946 89.5504C42.3647 89.4775 42.5346 89.429 42.7046 89.3804C43.4332 89.1375 44.089 88.4332 44.0404 87.6317C43.9918 86.8059 43.5061 86.1501 42.7046 85.883C39.5958 84.8386 36.3413 84.4014 33.2082 83.4056C32.8439 83.2842 32.4796 83.1627 32.1152 83.017C32.0424 82.9927 31.9694 82.9684 31.8966 82.9442C31.848 82.9199 31.5323 82.7498 31.7994 82.8956C32.0666 83.0413 31.7509 82.8713 31.7023 82.847C31.6052 82.7984 31.4838 82.7499 31.3866 82.7013C30.6823 82.3855 30.0265 81.9969 29.395 81.5597C29.2978 81.4869 29.2006 81.414 29.1035 81.3655C28.8849 81.2197 29.1521 81.4383 29.2007 81.4383C29.1279 81.4626 28.812 81.1226 28.7392 81.0497C28.4234 80.7583 28.1077 80.4668 27.8163 80.1511C27.5734 79.8839 27.3305 79.5925 27.0876 79.301C26.9662 79.1553 26.8448 79.0095 26.7233 78.8638C27.0391 79.2281 26.8448 79.0095 26.772 78.9124C26.6991 78.8152 26.6262 78.6938 26.5291 78.5967C25.6547 77.4066 24.926 76.1436 24.2702 74.8321C24.1002 74.492 23.9545 74.1763 23.8088 73.8363C23.7359 73.6905 23.6631 73.5448 23.6146 73.3748C23.566 73.3019 23.5417 73.2048 23.4931 73.1319C23.3474 72.7919 23.6388 73.4719 23.4931 73.1562C23.2017 72.4519 22.9344 71.7232 22.6672 71.0189C21.5743 68.0072 20.7242 64.8984 19.777 61.8381C18.4655 57.7092 16.9354 53.6532 14.9438 49.8157C14.5066 48.9657 13.2437 48.6499 12.4422 49.16C11.5679 49.7186 11.3249 50.7387 11.7864 51.6616C12.2722 52.5845 12.7337 53.5317 13.1708 54.479C13.3651 54.9161 13.5837 55.3533 13.7537 55.7905C13.7294 55.7419 13.608 55.4262 13.7294 55.7419C13.778 55.8391 13.8266 55.9605 13.8752 56.0577C13.9723 56.3005 14.0694 56.5434 14.1665 56.762C14.8466 58.4622 15.4538 60.1866 16.0124 61.9353C17.0325 65.0684 17.9069 68.2501 18.9756 71.3589C19.9957 74.322 21.2344 77.2608 23.0074 79.8596C23.9546 81.244 25.0232 82.6527 26.3347 83.7214C27.7434 84.9115 29.2979 85.7615 31.0223 86.4173C34.4711 87.7531 38.2115 88.1417 41.7089 89.3075C41.7089 88.1417 41.7089 86.9759 41.7089 85.7858C36.4142 87.4859 33.3782 92.7564 31.7023 97.7111C30.8279 100.261 30.2936 102.933 30.0265 105.605C29.6865 109.053 29.9293 112.551 30.2207 116C30.5608 120.25 30.9737 124.5 30.4879 128.751C31.678 128.581 32.8682 128.435 34.0583 128.265C33.2811 124.452 32.188 120.687 30.8279 117.044C29.4435 113.377 27.8163 109.758 25.8489 106.357C24.1731 103.492 22.1573 100.698 19.5828 98.5854C18.1741 97.4439 16.7168 96.521 15.0166 95.8652C13.5108 95.258 11.9321 95.088 10.3291 94.9423C9.16333 94.8451 8.02185 94.6994 6.85604 94.6265C5.13162 94.5294 3.43143 94.6022 1.70701 94.6994C2.02275 95.8409 2.31415 96.9581 2.62989 98.0997C5.49584 96.3267 8.28895 94.3837 10.7906 92.0763C13.2679 89.769 15.5753 87.1216 16.814 83.9399C18.0041 80.8797 18.1984 77.4551 18.1255 74.1763C18.0526 70.4603 17.7611 66.7443 17.3239 63.0768C16.8139 58.7536 16.0853 54.4304 15.1381 50.1801C14.9195 49.2571 13.8023 48.6256 12.9037 48.9171C12.0536 49.33 11.5192 50.2529 11.7621 51.2487Z" fill="#FEC031"/>
<path d="M107.31 100.164C107.65 101.5 107.917 102.836 108.112 104.22C108.087 104.05 108.063 103.904 108.039 103.734C108.403 106.43 108.452 109.199 108.087 111.895C108.112 111.725 108.136 111.579 108.16 111.409C107.869 113.595 107.31 115.733 106.46 117.748C106.533 117.603 106.582 117.457 106.654 117.311C106.241 118.283 105.78 119.23 105.221 120.129C104.954 120.59 104.638 121.052 104.323 121.489C104.177 121.683 104.031 121.877 103.886 122.072C104.274 121.562 103.958 121.974 103.861 122.096C103.764 122.217 103.667 122.339 103.57 122.436C102.89 123.262 102.113 124.015 101.311 124.719C101.117 124.889 100.898 125.059 100.704 125.229C100.582 125.326 100.17 125.642 100.68 125.253C100.558 125.326 100.461 125.423 100.34 125.52C99.8781 125.86 99.3924 126.176 98.9066 126.492C97.9837 127.051 97.0607 127.536 96.0649 127.949C96.2106 127.876 96.3563 127.828 96.5021 127.755C95.7977 128.046 95.0934 128.338 94.3891 128.654C93.9033 128.872 93.4419 129.066 93.0776 129.431C92.2518 130.208 92.3975 131.544 93.2475 132.2C93.6847 132.54 94.2677 132.637 94.7777 132.782C95.6521 133.05 96.5264 133.365 97.3764 133.73C97.2307 133.657 97.085 133.608 96.9393 133.535C99.2466 134.531 101.481 135.77 103.473 137.276C103.521 137.324 103.57 137.349 103.618 137.397C103.206 137.081 103.376 137.227 103.473 137.276C103.594 137.373 103.691 137.446 103.813 137.543C104.031 137.713 104.25 137.907 104.444 138.077C104.808 138.417 105.173 138.757 105.513 139.146C105.683 139.316 105.829 139.51 105.999 139.704C106.071 139.802 106.144 139.899 106.217 139.996C106.29 140.093 106.412 140.263 106.071 139.826C106.12 139.899 106.169 139.947 106.217 140.02C106.509 140.409 106.8 140.822 107.043 141.259C107.674 142.255 108.184 143.323 108.67 144.416C108.597 144.271 108.549 144.125 108.476 143.979C110.225 148.157 111.026 152.65 111.803 157.094C111.998 158.285 112.216 159.475 112.435 160.665C112.508 161.078 112.921 161.563 113.261 161.758C113.625 161.952 114.014 162.025 114.426 161.976C115.325 161.855 115.981 161.102 116.005 160.179C116.078 158.163 116.151 156.147 116.224 154.107C116.297 152.164 116.297 150.197 116.564 148.254C116.539 148.424 116.515 148.569 116.491 148.739C116.734 147.064 117.098 145.388 117.535 143.761C117.754 142.959 117.997 142.158 118.24 141.356C118.458 140.7 118.653 140.02 118.92 139.364C118.847 139.51 118.798 139.656 118.725 139.802C119.065 139.024 119.503 138.296 120.013 137.616C120.085 137.519 120.158 137.421 120.231 137.3C120.401 137.081 119.915 137.689 120.183 137.349C120.353 137.13 120.523 136.936 120.693 136.717C121.008 136.328 121.348 135.964 121.688 135.6C122.417 134.847 123.194 134.118 123.996 133.414C124.19 133.244 124.384 133.098 124.579 132.928C124.676 132.855 124.773 132.782 124.87 132.685C124.919 132.637 124.967 132.588 125.04 132.564C124.967 132.612 124.676 132.855 124.894 132.661C125.283 132.37 125.696 132.078 126.085 131.787C126.886 131.252 127.712 130.742 128.61 130.378C128.465 130.451 128.319 130.499 128.173 130.572C128.246 130.548 128.319 130.524 128.392 130.475C128.829 130.305 129.242 130.062 129.485 129.649C129.679 129.285 129.752 128.896 129.703 128.484C129.582 127.585 128.829 126.905 127.906 126.905C127.493 126.905 127.08 126.881 126.692 126.832C126.862 126.856 127.007 126.881 127.177 126.905C126.376 126.783 125.574 126.565 124.822 126.249C124.967 126.322 125.113 126.371 125.259 126.443C124.797 126.249 124.36 126.031 123.947 125.763C123.729 125.642 123.534 125.496 123.316 125.375C123.219 125.302 123.097 125.229 123 125.156C122.951 125.132 122.903 125.083 122.854 125.059C122.83 125.035 122.806 125.01 122.781 125.01C122.611 124.865 123.024 125.205 123 125.18C122.174 124.5 121.397 123.772 120.668 122.97C120.498 122.752 120.304 122.557 120.134 122.339C120.061 122.242 119.964 122.12 119.891 122.023C119.697 121.78 120.085 122.266 120.013 122.169C119.964 122.096 119.915 122.047 119.867 121.974C119.503 121.513 119.187 121.027 118.847 120.541C118.167 119.521 117.56 118.453 117.001 117.36C116.345 116.097 115.738 114.785 115.179 113.474C115.252 113.62 115.301 113.765 115.374 113.911C113.746 110.049 112.483 106.017 111.439 101.937C111.196 100.99 110.978 100.067 110.759 99.1198C110.54 98.1968 109.423 97.5653 108.524 97.8568C107.602 98.2454 107.067 99.1683 107.31 100.164C107.82 102.374 108.379 104.584 109.035 106.77C109.787 109.321 110.662 111.871 111.658 114.348C112.726 116.947 113.916 119.521 115.422 121.902C116.758 124.039 118.361 126.128 120.328 127.706C121.276 128.459 122.271 129.164 123.389 129.649C124.627 130.184 125.842 130.524 127.202 130.645C127.469 130.669 127.736 130.669 127.979 130.669C127.809 129.479 127.663 128.289 127.493 127.099C125.502 127.876 123.777 129.091 122.126 130.427C120.474 131.762 118.92 133.268 117.608 134.944C116.952 135.77 116.345 136.596 115.859 137.543C115.301 138.66 114.937 139.874 114.572 141.065C113.698 143.955 112.993 146.894 112.775 149.905C112.653 151.605 112.629 153.33 112.581 155.03C112.532 156.779 112.459 158.503 112.41 160.252C113.601 160.082 114.791 159.936 115.981 159.766C115.106 154.933 114.451 150.027 112.896 145.364C112.095 143.008 111.099 140.652 109.642 138.612C108.913 137.567 108.087 136.596 107.164 135.721C106.096 134.75 104.906 133.875 103.691 133.098C102.355 132.224 100.947 131.447 99.4895 130.791C98.6637 130.402 97.8137 130.062 96.9393 129.747C96.235 129.504 95.5306 129.309 94.8262 129.091C94.972 129.164 95.1177 129.212 95.2635 129.285C95.4821 129.504 95.6763 129.698 95.8949 129.917C95.9677 130.062 96.0164 130.208 96.0892 130.354C96.1135 130.524 96.1378 130.669 96.162 130.839C96.1378 131.009 96.1135 131.155 96.0892 131.325C96.0164 131.471 95.9677 131.617 95.8949 131.762C95.7491 131.981 95.5549 132.248 95.3363 132.345C95.3849 132.321 95.4092 132.297 95.4577 132.272C95.5792 132.2 95.7006 132.151 95.822 132.078C96.1621 131.908 96.5264 131.762 96.8907 131.617C96.745 131.69 96.5993 131.738 96.4535 131.811C97.4493 131.398 98.4694 130.985 99.4409 130.475C100.558 129.892 101.602 129.212 102.598 128.459C104.711 126.832 106.533 124.913 107.966 122.679C110.735 118.428 111.949 113.279 111.973 108.252C111.973 105.24 111.56 102.204 110.832 99.2898C110.589 98.3668 109.52 97.7111 108.597 98.0268C107.626 98.2454 107.043 99.1683 107.31 100.164Z" fill="#FEC031"/>
<path d="M131.914 35.7289C132.108 36.6275 132.278 37.5262 132.424 38.4248C132.497 38.862 132.57 39.3234 132.643 39.7849C132.667 39.9306 132.788 40.6107 132.691 40.0764C132.74 40.3435 132.764 40.6107 132.788 40.8536C133.007 42.6994 133.177 44.5696 133.274 46.4397C133.468 50.2043 133.444 53.9932 133.177 57.7335C133.104 58.6564 133.031 59.5794 132.958 60.5266C132.91 60.9395 132.885 61.3767 132.837 61.7895C132.813 61.9839 132.788 62.1782 132.764 62.3967C132.764 62.4939 132.74 62.5911 132.74 62.6639C132.715 62.8097 132.74 62.7368 132.764 62.4453C132.764 62.5182 132.74 62.5911 132.74 62.6639C132.521 64.2183 132.181 65.7484 131.768 67.2543C131.55 68.0072 131.307 68.7601 131.04 69.4888C130.894 69.8531 130.772 70.2174 130.627 70.5817C130.602 70.6789 130.554 70.7517 130.529 70.8489C130.675 70.3874 130.602 70.6546 130.554 70.776C130.457 70.9703 130.384 71.1889 130.287 71.3832C129.631 72.8162 128.878 74.1763 127.979 75.4878C127.736 75.8521 127.469 76.2164 127.202 76.5565C127.129 76.6536 126.983 76.7751 127.275 76.4593C127.202 76.5565 127.105 76.6536 127.032 76.7508C126.886 76.9208 126.765 77.0908 126.619 77.2608C126.061 77.9166 125.478 78.5238 124.846 79.131C124.53 79.4224 124.215 79.7139 123.875 80.0053C123.705 80.151 123.51 80.2725 123.365 80.4182C123.68 80.1025 123.559 80.2725 123.438 80.3696C123.34 80.4425 123.243 80.5154 123.122 80.5882C122.417 81.0983 121.665 81.584 120.887 81.9969C120.207 82.3612 119.819 83.3085 120.061 84.0614C120.159 84.3528 120.304 84.6443 120.523 84.8629C120.79 85.1543 121.397 85.4458 121.81 85.3972C123.437 85.2029 125.065 85.1058 126.692 85.1543C127.494 85.1786 128.271 85.2272 129.072 85.3C129.267 85.3243 129.485 85.3486 129.679 85.3729C129.825 85.3972 130.554 85.4944 129.922 85.3972C130.335 85.4701 130.748 85.5186 131.161 85.5915C132.74 85.8587 134.318 86.2473 135.848 86.733C136.626 86.9759 137.403 87.2431 138.156 87.5588C138.326 87.6317 138.472 87.6802 138.642 87.7531C138.739 87.8017 138.836 87.826 138.933 87.8745C138.423 87.6802 138.763 87.8017 138.884 87.8503C139.273 88.0203 139.637 88.1903 140.026 88.3603C141.508 89.0646 142.941 89.8419 144.301 90.7162C144.981 91.1534 145.636 91.5906 146.268 92.0763C146.438 92.1978 146.608 92.3192 146.778 92.4406C146.851 92.5135 146.948 92.5621 147.021 92.6349C146.632 92.3435 146.802 92.4649 146.899 92.5378C147.264 92.8292 147.604 93.0964 147.944 93.3879C149.158 94.4079 150.324 95.5252 151.393 96.691C151.951 97.2982 152.486 97.9296 153.02 98.5854C153.117 98.7311 153.238 98.8526 153.336 98.9983C152.947 98.5368 153.408 99.0955 153.481 99.2169C153.724 99.5569 153.967 99.8969 154.21 100.237C155.23 101.719 156.153 103.273 156.93 104.876C157.125 105.289 157.319 105.702 157.489 106.09C157.635 106.43 157.319 105.677 157.464 106.042C157.513 106.163 157.562 106.309 157.61 106.43C157.683 106.625 157.756 106.819 157.829 107.013C158.169 107.888 158.46 108.786 158.703 109.685C158.97 110.608 160.015 111.264 160.938 110.948C161.375 110.802 161.812 110.535 162.031 110.122C162.274 109.661 162.298 109.223 162.225 108.713C162.225 108.689 162.152 108.228 162.201 108.519C162.249 108.811 162.176 108.373 162.176 108.349C162.152 108.179 162.128 108.009 162.103 107.839C162.055 107.45 162.006 107.062 161.982 106.673C161.933 106.066 161.885 105.459 161.861 104.852C161.836 103.904 161.861 102.933 161.836 101.986C161.836 100.796 161.763 99.6298 161.642 98.4397C161.545 97.541 161.423 96.6424 161.302 95.7438C161.229 95.2094 161.156 94.6751 161.083 94.1165C161.059 94.0193 161.059 93.9222 161.035 93.825C160.962 93.3636 161.083 94.1165 161.035 93.825C161.011 93.5579 160.962 93.315 160.938 93.0478C160.719 91.3234 160.525 89.5747 160.476 87.826C160.452 86.9273 160.452 86.053 160.525 85.1543C160.549 84.7414 160.573 84.3042 160.646 83.8913C160.549 84.4014 160.695 83.6485 160.695 83.5513C160.743 83.3085 160.768 83.0899 160.816 82.847C160.962 82.0941 161.181 81.3654 161.423 80.6611C161.521 80.3454 161.642 80.0296 161.763 79.7139C161.812 79.5682 161.861 79.4224 161.934 79.301C161.958 79.2038 162.006 79.131 162.031 79.0338C162.201 78.6452 161.958 79.2281 162.031 79.0581C162.614 77.7709 163.269 76.5322 164.046 75.3664C164.265 75.0506 164.581 74.7106 164.775 74.3706C164.751 74.3949 164.508 74.7106 164.702 74.4677C164.775 74.3706 164.848 74.2977 164.921 74.2006C165.042 74.0549 165.164 73.9091 165.285 73.7634C165.795 73.1805 166.33 72.6219 166.913 72.0875C167.204 71.8204 167.52 71.5532 167.835 71.2861C168.078 71.0918 167.763 71.3589 167.738 71.3589C167.835 71.3103 167.908 71.2132 168.005 71.1646C168.175 71.0432 168.345 70.9217 168.491 70.8003C169.147 70.3388 169.827 69.9502 170.556 69.5859C171.236 69.2459 171.624 68.2501 171.381 67.5215C171.114 66.72 170.458 66.2342 169.633 66.1856C168.783 66.1371 167.933 66.0642 167.082 65.967C166.888 65.9428 166.694 65.9185 166.5 65.8942C166.402 65.8942 166.305 65.8456 166.208 65.8456C166.694 65.8213 166.378 65.8699 166.232 65.8456C165.795 65.7727 165.358 65.7242 164.945 65.6513C163.294 65.3598 161.666 64.9955 160.088 64.5341C159.286 64.2912 158.509 64.0483 157.732 63.7569C157.367 63.6111 157.003 63.4897 156.614 63.344C156.566 63.3197 156.056 63.1254 156.056 63.1254C156.129 63.1497 156.202 63.1982 156.274 63.2225C156.202 63.1982 156.129 63.1497 156.056 63.1254C155.959 63.0768 155.837 63.0282 155.74 62.9797C154.21 62.2996 152.753 61.5224 151.344 60.6238C150.64 60.1623 149.935 59.7008 149.28 59.1908C149.207 59.1422 149.158 59.0936 149.085 59.0451C149.498 59.3365 149.158 59.1179 149.085 59.0451C148.94 58.9236 148.77 58.8022 148.624 58.6807C148.284 58.4136 147.968 58.1221 147.652 57.8307C147.045 57.2721 146.438 56.6891 145.879 56.0819C145.296 55.4505 144.786 54.7704 144.228 54.1389C144.568 54.5275 144.155 54.0418 144.082 53.9204C143.961 53.7503 143.839 53.6046 143.718 53.4346C143.451 53.0703 143.208 52.706 142.965 52.3417C142.479 51.613 142.042 50.8601 141.605 50.1072C140.755 48.6013 140.002 47.0469 139.297 45.4439C139.273 45.3711 139.225 45.2982 139.2 45.2254C139.176 45.1525 139.127 45.0796 139.103 45.0068C139.2 45.2496 139.224 45.2739 139.152 45.1039C139.054 44.8853 138.957 44.6424 138.86 44.4238C138.69 43.9867 138.52 43.5495 138.35 43.1123C138.01 42.2137 137.67 41.2907 137.354 40.3921C136.699 38.5219 136.091 36.6518 135.484 34.7816C135.193 33.883 134.197 33.203 133.25 33.5187C132.278 33.7859 131.598 34.7574 131.914 35.7289C134.1 42.5537 136.383 49.5971 140.633 55.4505C142.795 58.4379 145.394 61.0123 148.454 63.1254C151.344 65.117 154.574 66.6228 157.902 67.7158C161.691 68.9544 165.649 69.6345 169.633 69.8531C169.317 68.7116 169.026 67.5943 168.71 66.4528C163.196 69.1973 159.359 74.662 157.683 80.5154C156.663 84.0857 156.712 87.8017 157.124 91.4448C157.246 92.4649 157.367 93.4607 157.513 94.4808C157.537 94.7237 157.586 94.9422 157.61 95.1851C157.635 95.2823 157.635 95.3794 157.659 95.4766C157.732 95.9381 157.61 95.1851 157.659 95.5009C157.732 95.9623 157.78 96.4481 157.853 96.9096C158.023 98.3425 158.193 99.7755 158.217 101.208C158.242 102.301 158.217 103.394 158.242 104.487C158.29 106.212 158.485 107.936 158.728 109.661C159.893 109.345 161.059 109.005 162.249 108.689C160.379 102.083 156.493 96.1081 151.393 91.5663C146.292 87.0002 139.977 83.6728 133.274 82.2884C129.534 81.5112 125.648 81.2683 121.859 81.7541C122.175 82.8956 122.466 84.0128 122.782 85.1543C128.756 81.8755 132.788 75.9736 134.901 69.6102C135.994 66.3071 136.48 62.8825 136.747 59.4094C137.063 55.5719 137.16 51.7345 137.014 47.897C136.844 43.5009 136.383 39.1048 135.484 34.8059C135.29 33.883 134.148 33.2515 133.25 33.543C132.205 33.8101 131.72 34.7331 131.914 35.7289Z" fill="#FEC031"/>
</svg>
